<mxfile host="Electron" agent="Mozilla/5.0 (Windows NT 10.0; Win64; x64) AppleWebKit/537.36 (KHTML, like Gecko) draw.io/27.0.9 Chrome/134.0.6998.205 Electron/35.4.0 Safari/537.36" version="27.0.9">
  <diagram name="Page-1" id="lIRzcSVRN7u6DHF4PdhF">
    <mxGraphModel dx="2076" dy="1836" grid="1" gridSize="10" guides="1" tooltips="1" connect="1" arrows="1" fold="1" page="1" pageScale="1" pageWidth="850" pageHeight="1100" math="0" shadow="0">
      <root>
        <mxCell id="0" />
        <mxCell id="1" parent="0" />
        <mxCell id="6aFZdIYacGjtkcY-i2oB-1" value="crm_cust_info" style="swimlane;fontStyle=0;childLayout=stackLayout;horizontal=1;startSize=30;horizontalStack=0;resizeParent=1;resizeParentMax=0;resizeLast=0;collapsible=1;marginBottom=0;whiteSpace=wrap;html=1;rounded=1;shadow=0;swimlaneLine=1;glass=0;fillColor=#dae8fc;strokeColor=#6c8ebf;fontSize=20;" parent="1" vertex="1">
          <mxGeometry x="320" y="144" width="180" height="90" as="geometry">
            <mxRectangle x="270" y="210" width="200" height="40" as="alternateBounds" />
          </mxGeometry>
        </mxCell>
        <mxCell id="6aFZdIYacGjtkcY-i2oB-2" value="cst_id" style="text;strokeColor=none;fillColor=none;align=left;verticalAlign=middle;spacingLeft=4;spacingRight=4;overflow=hidden;points=[[0,0.5],[1,0.5]];portConstraint=eastwest;rotatable=0;whiteSpace=wrap;html=1;fontSize=20;" parent="6aFZdIYacGjtkcY-i2oB-1" vertex="1">
          <mxGeometry y="30" width="180" height="30" as="geometry" />
        </mxCell>
        <mxCell id="ilOoSIBAgJT9u5wPSAw3-4" value="cst_key" style="text;strokeColor=none;fillColor=none;align=left;verticalAlign=middle;spacingLeft=4;spacingRight=4;overflow=hidden;points=[[0,0.5],[1,0.5]];portConstraint=eastwest;rotatable=0;whiteSpace=wrap;html=1;fontSize=20;" parent="6aFZdIYacGjtkcY-i2oB-1" vertex="1">
          <mxGeometry y="60" width="180" height="30" as="geometry" />
        </mxCell>
        <mxCell id="ilOoSIBAgJT9u5wPSAw3-1" value="erp_cust_az12" style="swimlane;fontStyle=0;childLayout=stackLayout;horizontal=1;startSize=30;horizontalStack=0;resizeParent=1;resizeParentMax=0;resizeLast=0;collapsible=1;marginBottom=0;whiteSpace=wrap;html=1;rounded=1;shadow=0;swimlaneLine=1;glass=0;fillColor=#fff2cc;strokeColor=#d6b656;fontSize=20;" parent="1" vertex="1">
          <mxGeometry x="717.5" y="115" width="180" height="60" as="geometry">
            <mxRectangle x="270" y="210" width="200" height="40" as="alternateBounds" />
          </mxGeometry>
        </mxCell>
        <mxCell id="ilOoSIBAgJT9u5wPSAw3-2" value="cid" style="text;strokeColor=none;fillColor=none;align=left;verticalAlign=middle;spacingLeft=4;spacingRight=4;overflow=hidden;points=[[0,0.5],[1,0.5]];portConstraint=eastwest;rotatable=0;whiteSpace=wrap;html=1;fontSize=20;" parent="ilOoSIBAgJT9u5wPSAw3-1" vertex="1">
          <mxGeometry y="30" width="180" height="30" as="geometry" />
        </mxCell>
        <mxCell id="ilOoSIBAgJT9u5wPSAw3-6" value="erp_loc_a101" style="swimlane;fontStyle=0;childLayout=stackLayout;horizontal=1;startSize=30;horizontalStack=0;resizeParent=1;resizeParentMax=0;resizeLast=0;collapsible=1;marginBottom=0;whiteSpace=wrap;html=1;rounded=1;shadow=0;swimlaneLine=1;glass=0;fillColor=#fff2cc;strokeColor=#d6b656;fontSize=20;" parent="1" vertex="1">
          <mxGeometry x="717.5" y="231" width="180" height="60" as="geometry">
            <mxRectangle x="270" y="210" width="200" height="40" as="alternateBounds" />
          </mxGeometry>
        </mxCell>
        <mxCell id="ilOoSIBAgJT9u5wPSAw3-7" value="cid" style="text;strokeColor=none;fillColor=none;align=left;verticalAlign=middle;spacingLeft=4;spacingRight=4;overflow=hidden;points=[[0,0.5],[1,0.5]];portConstraint=eastwest;rotatable=0;whiteSpace=wrap;html=1;fontSize=20;" parent="ilOoSIBAgJT9u5wPSAw3-6" vertex="1">
          <mxGeometry y="30" width="180" height="30" as="geometry" />
        </mxCell>
        <mxCell id="ilOoSIBAgJT9u5wPSAw3-11" value="erp_px_cat_g1v2" style="swimlane;fontStyle=0;childLayout=stackLayout;horizontal=1;startSize=30;horizontalStack=0;resizeParent=1;resizeParentMax=0;resizeLast=0;collapsible=1;marginBottom=0;whiteSpace=wrap;html=1;rounded=1;shadow=0;swimlaneLine=1;glass=0;fillColor=#fff2cc;strokeColor=#d6b656;fontSize=20;" parent="1" vertex="1">
          <mxGeometry x="725" y="377" width="180" height="60" as="geometry">
            <mxRectangle x="270" y="210" width="200" height="40" as="alternateBounds" />
          </mxGeometry>
        </mxCell>
        <mxCell id="ilOoSIBAgJT9u5wPSAw3-12" value="id" style="text;strokeColor=none;fillColor=none;align=left;verticalAlign=middle;spacingLeft=4;spacingRight=4;overflow=hidden;points=[[0,0.5],[1,0.5]];portConstraint=eastwest;rotatable=0;whiteSpace=wrap;html=1;fontSize=20;" parent="ilOoSIBAgJT9u5wPSAw3-11" vertex="1">
          <mxGeometry y="30" width="180" height="30" as="geometry" />
        </mxCell>
        <mxCell id="6aFZdIYacGjtkcY-i2oB-5" value="Customer Information" style="text;html=1;align=center;verticalAlign=middle;whiteSpace=wrap;rounded=0;fontStyle=1" parent="1" vertex="1">
          <mxGeometry x="340" y="120" width="140" height="30" as="geometry" />
        </mxCell>
        <mxCell id="ilOoSIBAgJT9u5wPSAw3-3" value="Extra Customer Information" style="text;html=1;align=center;verticalAlign=middle;whiteSpace=wrap;rounded=0;fontStyle=1" parent="1" vertex="1">
          <mxGeometry x="722.5" y="90" width="170" height="30" as="geometry" />
        </mxCell>
        <mxCell id="ilOoSIBAgJT9u5wPSAw3-8" value="Customers Location (Country)" style="text;html=1;align=center;verticalAlign=middle;whiteSpace=wrap;rounded=0;fontStyle=1" parent="1" vertex="1">
          <mxGeometry x="715" y="205" width="185" height="30" as="geometry" />
        </mxCell>
        <mxCell id="ilOoSIBAgJT9u5wPSAw3-13" value="Product Categories" style="text;html=1;align=center;verticalAlign=middle;whiteSpace=wrap;rounded=0;fontStyle=1" parent="1" vertex="1">
          <mxGeometry x="717.5" y="352" width="185" height="30" as="geometry" />
        </mxCell>
        <mxCell id="6aFZdIYacGjtkcY-i2oB-6" value="crm_prd_info" style="swimlane;fontStyle=0;childLayout=stackLayout;horizontal=1;startSize=30;horizontalStack=0;resizeParent=1;resizeParentMax=0;resizeLast=0;collapsible=1;marginBottom=0;whiteSpace=wrap;html=1;rounded=1;shadow=0;swimlaneLine=1;glass=0;fillColor=#dae8fc;strokeColor=#6c8ebf;fontSize=20;" parent="1" vertex="1">
          <mxGeometry x="320" y="377" width="180" height="60" as="geometry">
            <mxRectangle x="270" y="210" width="200" height="40" as="alternateBounds" />
          </mxGeometry>
        </mxCell>
        <mxCell id="6aFZdIYacGjtkcY-i2oB-7" value="prd_key" style="text;strokeColor=none;fillColor=none;align=left;verticalAlign=middle;spacingLeft=4;spacingRight=4;overflow=hidden;points=[[0,0.5],[1,0.5]];portConstraint=eastwest;rotatable=0;whiteSpace=wrap;html=1;fontSize=20;" parent="6aFZdIYacGjtkcY-i2oB-6" vertex="1">
          <mxGeometry y="30" width="180" height="30" as="geometry" />
        </mxCell>
        <mxCell id="6aFZdIYacGjtkcY-i2oB-8" value="Current &amp;amp; History Product Information" style="text;html=1;align=center;verticalAlign=middle;whiteSpace=wrap;rounded=0;fontSize=12;fontStyle=1" parent="1" vertex="1">
          <mxGeometry x="297.5" y="350" width="225" height="30" as="geometry" />
        </mxCell>
        <mxCell id="6aFZdIYacGjtkcY-i2oB-9" value="crm_sales_details" style="swimlane;fontStyle=0;childLayout=stackLayout;horizontal=1;startSize=30;horizontalStack=0;resizeParent=1;resizeParentMax=0;resizeLast=0;collapsible=1;marginBottom=0;whiteSpace=wrap;html=1;rounded=1;shadow=0;swimlaneLine=1;glass=0;fillColor=#dae8fc;strokeColor=#6c8ebf;fontSize=20;" parent="1" vertex="1">
          <mxGeometry x="20" y="240" width="180" height="90" as="geometry">
            <mxRectangle x="270" y="210" width="200" height="40" as="alternateBounds" />
          </mxGeometry>
        </mxCell>
        <mxCell id="6aFZdIYacGjtkcY-i2oB-10" value="sls_cst_id" style="text;strokeColor=none;fillColor=none;align=left;verticalAlign=middle;spacingLeft=4;spacingRight=4;overflow=hidden;points=[[0,0.5],[1,0.5]];portConstraint=eastwest;rotatable=0;whiteSpace=wrap;html=1;fontSize=20;" parent="6aFZdIYacGjtkcY-i2oB-9" vertex="1">
          <mxGeometry y="30" width="180" height="30" as="geometry" />
        </mxCell>
        <mxCell id="6aFZdIYacGjtkcY-i2oB-18" value="sls_prd_key" style="text;strokeColor=none;fillColor=none;align=left;verticalAlign=middle;spacingLeft=4;spacingRight=4;overflow=hidden;points=[[0,0.5],[1,0.5]];portConstraint=eastwest;rotatable=0;whiteSpace=wrap;html=1;fontSize=20;" parent="6aFZdIYacGjtkcY-i2oB-9" vertex="1">
          <mxGeometry y="60" width="180" height="30" as="geometry" />
        </mxCell>
        <mxCell id="6aFZdIYacGjtkcY-i2oB-11" value="Transactional Records about Sales &amp;amp; orders" style="text;html=1;align=center;verticalAlign=middle;whiteSpace=wrap;rounded=0;fontStyle=1" parent="1" vertex="1">
          <mxGeometry x="40" y="205" width="140" height="30" as="geometry" />
        </mxCell>
        <mxCell id="6aFZdIYacGjtkcY-i2oB-21" style="edgeStyle=orthogonalEdgeStyle;rounded=0;orthogonalLoop=1;jettySize=auto;html=1;entryX=0;entryY=0.5;entryDx=0;entryDy=0;" parent="1" source="6aFZdIYacGjtkcY-i2oB-10" target="6aFZdIYacGjtkcY-i2oB-2" edge="1">
          <mxGeometry relative="1" as="geometry" />
        </mxCell>
        <mxCell id="6aFZdIYacGjtkcY-i2oB-22" style="edgeStyle=orthogonalEdgeStyle;rounded=0;orthogonalLoop=1;jettySize=auto;html=1;" parent="1" source="6aFZdIYacGjtkcY-i2oB-18" target="6aFZdIYacGjtkcY-i2oB-7" edge="1">
          <mxGeometry relative="1" as="geometry" />
        </mxCell>
        <mxCell id="ilOoSIBAgJT9u5wPSAw3-5" value="" style="edgeStyle=orthogonalEdgeStyle;rounded=0;orthogonalLoop=1;jettySize=auto;html=1;" parent="1" source="ilOoSIBAgJT9u5wPSAw3-4" target="ilOoSIBAgJT9u5wPSAw3-2" edge="1">
          <mxGeometry relative="1" as="geometry" />
        </mxCell>
        <mxCell id="ilOoSIBAgJT9u5wPSAw3-10" style="edgeStyle=orthogonalEdgeStyle;rounded=0;orthogonalLoop=1;jettySize=auto;html=1;entryX=0;entryY=0.5;entryDx=0;entryDy=0;" parent="1" source="ilOoSIBAgJT9u5wPSAw3-4" target="ilOoSIBAgJT9u5wPSAw3-7" edge="1">
          <mxGeometry relative="1" as="geometry" />
        </mxCell>
        <mxCell id="ilOoSIBAgJT9u5wPSAw3-15" style="edgeStyle=orthogonalEdgeStyle;rounded=0;orthogonalLoop=1;jettySize=auto;html=1;" parent="1" source="6aFZdIYacGjtkcY-i2oB-7" target="ilOoSIBAgJT9u5wPSAw3-12" edge="1">
          <mxGeometry relative="1" as="geometry" />
        </mxCell>
        <mxCell id="ilOoSIBAgJT9u5wPSAw3-16" value="" style="rounded=1;whiteSpace=wrap;html=1;fillColor=none;dashed=1;" parent="1" vertex="1">
          <mxGeometry y="20" width="540" height="510" as="geometry" />
        </mxCell>
        <mxCell id="ilOoSIBAgJT9u5wPSAw3-17" value="CRM" style="rounded=1;whiteSpace=wrap;html=1;fontSize=30;fillColor=#dae8fc;strokeColor=#6c8ebf;fontStyle=1" parent="1" vertex="1">
          <mxGeometry x="190" width="150" height="40" as="geometry" />
        </mxCell>
        <mxCell id="ilOoSIBAgJT9u5wPSAw3-19" value="" style="rounded=1;whiteSpace=wrap;html=1;fillColor=none;dashed=1;" parent="1" vertex="1">
          <mxGeometry x="609.25" y="20" width="370" height="510" as="geometry" />
        </mxCell>
        <mxCell id="ilOoSIBAgJT9u5wPSAw3-21" value="&lt;font style=&quot;font-size: 30px;&quot;&gt;&lt;b&gt;ERP&lt;/b&gt;&lt;/font&gt;" style="rounded=1;whiteSpace=wrap;html=1;fillColor=#fff2cc;strokeColor=#d6b656;" parent="1" vertex="1">
          <mxGeometry x="738" width="112.5" height="40" as="geometry" />
        </mxCell>
        <mxCell id="ilOoSIBAgJT9u5wPSAw3-23" value="&lt;font style=&quot;font-size: 30px;&quot;&gt;Data Integration&lt;/font&gt; &lt;font style=&quot;font-size: 20px;&quot;&gt;(how tables are related)&lt;/font&gt;" style="text;html=1;align=center;verticalAlign=middle;resizable=0;points=[];autosize=1;strokeColor=none;fillColor=none;fontSize=17;" parent="1" vertex="1">
          <mxGeometry x="-70" y="-180" width="450" height="50" as="geometry" />
        </mxCell>
        <mxCell id="ilOoSIBAgJT9u5wPSAw3-24" value="" style="rounded=1;whiteSpace=wrap;html=1;fillColor=none;" parent="1" vertex="1">
          <mxGeometry x="-130" y="-200" width="1130" height="100" as="geometry" />
        </mxCell>
        <mxCell id="ilOoSIBAgJT9u5wPSAw3-25" value="Customer Relationship Management&lt;div&gt;&lt;br&gt;&lt;/div&gt;" style="text;html=1;align=center;verticalAlign=middle;whiteSpace=wrap;rounded=0;fontSize=18;" parent="1" vertex="1">
          <mxGeometry x="110" y="-24" width="320" height="30" as="geometry" />
        </mxCell>
        <mxCell id="ilOoSIBAgJT9u5wPSAw3-26" value="Enterprise Resource Planning" style="text;html=1;align=center;verticalAlign=middle;whiteSpace=wrap;rounded=0;fontSize=18;" parent="1" vertex="1">
          <mxGeometry x="666.75" y="-34" width="255" height="30" as="geometry" />
        </mxCell>
        <mxCell id="aNrMfUtChSNdE-1U5x_m-1" value="&lt;font style=&quot;font-size: 16px;&quot;&gt;&lt;b&gt;PRODUCT&lt;/b&gt;&lt;/font&gt;" style="text;html=1;strokeColor=#b85450;fillColor=#f8cecc;align=center;verticalAlign=middle;whiteSpace=wrap;overflow=hidden;" vertex="1" parent="1">
          <mxGeometry x="320" y="437" width="180" height="40" as="geometry" />
        </mxCell>
        <mxCell id="aNrMfUtChSNdE-1U5x_m-7" value="&lt;font style=&quot;font-size: 16px;&quot;&gt;&lt;b&gt;SALES&lt;/b&gt;&lt;/font&gt;" style="text;html=1;strokeColor=#9673a6;fillColor=#e1d5e7;align=center;verticalAlign=middle;whiteSpace=wrap;overflow=hidden;" vertex="1" parent="1">
          <mxGeometry x="20" y="330" width="180" height="40" as="geometry" />
        </mxCell>
        <mxCell id="aNrMfUtChSNdE-1U5x_m-5" value="&lt;font style=&quot;font-size: 16px;&quot;&gt;&lt;b&gt;PRODUCT&lt;/b&gt;&lt;/font&gt;" style="text;html=1;strokeColor=#b85450;fillColor=#f8cecc;align=center;verticalAlign=middle;whiteSpace=wrap;overflow=hidden;" vertex="1" parent="1">
          <mxGeometry x="725" y="437" width="180" height="40" as="geometry" />
        </mxCell>
        <mxCell id="aNrMfUtChSNdE-1U5x_m-2" value="&lt;font style=&quot;font-size: 16px;&quot;&gt;&lt;b&gt;CUSTOMER&lt;/b&gt;&lt;/font&gt;" style="text;html=1;strokeColor=#82b366;fillColor=#d5e8d4;align=center;verticalAlign=middle;whiteSpace=wrap;overflow=hidden;" vertex="1" parent="1">
          <mxGeometry x="717.5" y="175" width="180" height="25" as="geometry" />
        </mxCell>
        <mxCell id="aNrMfUtChSNdE-1U5x_m-6" value="&lt;font style=&quot;font-size: 16px;&quot;&gt;&lt;b&gt;CUSTOMER&lt;/b&gt;&lt;/font&gt;" style="text;html=1;strokeColor=#82b366;fillColor=#d5e8d4;align=center;verticalAlign=middle;whiteSpace=wrap;overflow=hidden;" vertex="1" parent="1">
          <mxGeometry x="320" y="234" width="180" height="25" as="geometry" />
        </mxCell>
        <mxCell id="aNrMfUtChSNdE-1U5x_m-4" value="&lt;font style=&quot;font-size: 16px;&quot;&gt;&lt;b&gt;CUSTOMER&lt;/b&gt;&lt;/font&gt;" style="text;html=1;strokeColor=#82b366;fillColor=#d5e8d4;align=center;verticalAlign=middle;whiteSpace=wrap;overflow=hidden;" vertex="1" parent="1">
          <mxGeometry x="717.5" y="291" width="180" height="25" as="geometry" />
        </mxCell>
      </root>
    </mxGraphModel>
  </diagram>
</mxfile>
